<?xml version="1.0" encoding="UTF-8"?>
<!DOCTYPE svg PUBLIC "-//W3C//DTD SVG 1.1//EN" "http://www.w3.org/Graphics/SVG/1.1/DTD/svg11.dtd">
<!-- Creator: CorelDRAW -->
<svg xmlns="http://www.w3.org/2000/svg" xml:space="preserve" width="198.202mm" height="198.352mm" version="1.1" style="shape-rendering:geometricPrecision; text-rendering:geometricPrecision; image-rendering:optimizeQuality; fill-rule:evenodd; clip-rule:evenodd"
viewBox="0 0 6330.37 6335.17"
 xmlns:xlink="http://www.w3.org/1999/xlink"
 xmlns:xodm="http://www.corel.com/coreldraw/odm/2003">
 <defs>
  <style type="text/css">
   <![CDATA[
    .fil0 {fill:black;fill-rule:nonzero}
   ]]>
  </style>
 </defs>
 <g id="圖層_x0020_1">
  <metadata id="CorelCorpID_0Corel-Layer"/>
  <g id="_528455416832">
   <g>
    <path class="fil0" d="M1242.04 4211.71l1245.23 -698.74 20.85 -60.89 -20.85 -33.65 -60.9 -0 -208.35 -12.83 -711.54 -19.24 -617.02 -25.63 -597.77 -32.04 -150.65 -32.07 -141.04 -185.89 14.41 -92.97 126.63 -84.95 181.08 16.05 400.67 27.24 600.97 41.65 435.91 25.66 645.87 67.31 102.58 0 14.41 -41.68 -35.27 -25.63 -27.24 -25.66 -621.8 -421.47 -673.11 -445.55 -352.55 -256.42 -190.71 -129.82 -96.17 -121.79 -41.65 -266.02 173.08 -190.71 232.37 16.02 59.29 16.02 235.59 181.08 503.23 389.46 657.09 484.01 96.16 80.11 38.46 -27.24 4.8 -19.22 -43.29 -72.14 -357.39 -645.85 -381.43 -657.09 -169.86 -272.41 -44.87 -163.5c-16.03,-67.31 -27.24,-123.38 -27.24,-192.3l197.13 -267.67 108.94 -35.24 262.83 35.27 110.6 96.14 163.45 373.43 264.44 588.17 410.28 799.71 120.18 237.17 64.12 219.57 24.02 67.31 41.68 0 0 -38.46 33.65 -450.32 62.5 -552.93 60.9 -711.57 20.83 -200.32 99.36 -240.39 197.13 -129.82 153.84 73.72 126.62 181.08 -17.63 117.02 -75.31 488.79 -147.45 766.05 -96.17 512.86 56.09 0 64.12 -64.12 259.61 -344.56 435.91 -544.9 192.32 -216.35 224.37 -238.78 144.23 -113.8 272.44 -0 200.35 298.1 -89.75 307.7 -280.46 355.78 -232.39 301.29 -333.34 448.74 -208.35 358.99 19.24 28.85 49.68 -4.83 753.22 -160.23 407.06 -73.75 485.59 -83.33 219.57 102.58 24.02 104.16 -86.53 213.15 -519.22 128.21 -609.02 121.79 -907.09 214.76 -11.22 8.03 12.83 16.02 408.67 38.46 174.69 9.61 427.89 -0.01 796.52 59.31 208.32 137.79 125.02 168.3 -20.85 128.21 -320.51 163.47 -432.72 -102.58 -1009.67 -240.4 -346.14 -86.55 -48.1 0 0 28.85 288.49 282.07 528.85 477.57 661.9 615.41 33.65 152.26 -84.95 120.21 -89.75 -12.83 -581.75 -437.52 -224.37 -197.13 -508.03 -427.89 -33.65 0 0 44.87 116.99 171.47 618.63 929.53 32.04 285.27 -44.87 92.94 -160.25 56.09 -176.3 -32.04 -362.19 -508.03 -373.41 -572.15 -301.29 -512.83 -36.88 20.85 -177.91 1915.13 -83.31 97.74 -192.33 73.72 -160.25 -121.79 -84.95 -197.13 84.95 -389.43 102.58 -508.03 83.33 -403.87 75.31 -501.64 44.87 -166.67 -3.19 -11.22 -36.88 4.8 -378.21 519.27 -575.34 777.27 -455.16 487.18 -108.96 43.29 -189.1 -97.77 17.6 -174.69 105.8 -155.45 629.82 -801.32 379.82 -496.79 245.22 -286.88 -1.64 -41.68 -14.41 0 -1673.15 1086.59 -298.1 38.46 -128.21 -120.21 16.05 -197.1 60.9 -64.12 503.23 -346.16 -1.61 1.61z"/>
   </g>
  </g>
 </g>
</svg>
