<?xml version="1.0" encoding="UTF-8"?>
<!DOCTYPE svg PUBLIC "-//W3C//DTD SVG 1.1//EN" "http://www.w3.org/Graphics/SVG/1.1/DTD/svg11.dtd">
<!-- Creator: CorelDRAW -->
<svg preserveAspectRatio="xMidYMid meet" xmlns="http://www.w3.org/2000/svg" xml:space="preserve" width="512" height="512" version="1.1" style="shape-rendering:geometricPrecision; text-rendering:geometricPrecision; image-rendering:optimizeQuality; fill-rule:evenodd; clip-rule:evenodd"
viewBox="0 0 6280.94 6280.94"
 xmlns:xlink="http://www.w3.org/1999/xlink"
 xmlns:xodm="http://www.corel.com/coreldraw/odm/2003">
 <defs>
  <style type="text/css">
   <![CDATA[
    .fil0 {fill:black;fill-rule:nonzero}
   ]]>
  </style>
 </defs>
 <g id="圖層_x0020_1">
  <metadata id="CorelCorpID_0Corel-Layer"/>
  <g id="_528460197696">
   <g>
    <g p-id="3633">
     <path class="fil0" d="M3140.47 0c-1734.14,0 -3140.47,1406.33 -3140.47,3140.47 0,1734.14 1406.33,3140.47 3140.47,3140.47 1734.14,0 3140.47,-1406.33 3140.47,-3140.47 0,-1734.14 -1406.33,-3140.47 -3140.47,-3140.47l0 -0zm1112.25 293.11c83.75,0 170.11,7.85 225.07,26.17 -567.9,117.77 -1020.65,646.41 -1018.04,1250.96 0,13.09 0,28.79 2.62,44.49 952.61,232.92 1379.19,806.05 1379.19,1599.02 10.47,792.97 -617.63,1664.45 -1677.53,1667.07 -855.78,2.62 -1748.2,-730.16 -1753.43,-1905.22 -2.62,-777.27 421.34,-1525.75 955.22,-1968.03 523.41,-434.43 1237.87,-711.84 1886.9,-714.46l-0 0z"/>
    </g>
   </g>
  </g>
 </g>
</svg>
